<svg xmlns="http://www.w3.org/2000/svg" viewBox="0 0 187.58 69.54"><defs><style>.cls-1{fill:#094;}.cls-2{fill:#e8380d;}.cls-3{fill:#898989;}</style></defs><g id="レイヤー_2" data-name="レイヤー 2"><g id="レイヤー_1-2" data-name="レイヤー 1"><path class="cls-1" d="M54.75,44c0-.18-.26-.17-.41-.16h-.09a44.06,44.06,0,0,0-14.56,2.87,28.65,28.65,0,0,1-5.23,6.78C29.17,58,23.2,59.53,16.71,58c0,0,0,0,0,0s0,0,0,0h0a50.23,50.23,0,0,0-8.52,9.64c.64-1.64,3.78-9.62,4.51-11.25a10.12,10.12,0,0,1-.93-.47l-.27-.16a4.09,4.09,0,0,1-.39-.22c-.26.63-4.49,10.85-5.3,13.41a0,0,0,0,0,0,0,1.24,1.24,0,0,0,1,.67,11.85,11.85,0,0,0,2.7-.28l.32-.06c1-.16,2.89-.26,4.92-.35s4.35-.23,5.56-.43l.3-.05c3.47-.57,7.78-1.29,13.84-6.44,2.18-1.86,4.41-4.21,6.57-6.47a81.56,81.56,0,0,1,6.66-6.55,28.94,28.94,0,0,1,6.74-4.47l.05,0c.13,0,.34-.12.29-.35"/><path class="cls-2" d="M27.59,52.07c6-6,9.81-14.33,11.41-24.76a99,99,0,0,0,.13-23.76l0-.4c-.06-.82-.17-1.48-.85-1.77s-1.17,0-1.94.46L36,2l-.74.41A81,81,0,0,0,17.57,15.08C11.63,20.61,5,32,4.72,40.71c-.38,10.93,5,13.94,6.77,14.93l.27.16c3.67,2.19,10.19,2,15.83-3.73"/><path class="cls-2" d="M3.94,36.71c1.83-10.4,8.59-19.4,13.83-24a103.43,103.43,0,0,1,11-8.24s0,0,0,0-.67-2.66-.8-3.1l0-.09C27.78.84,27.58.13,27,0a2.18,2.18,0,0,0-1.48.51L25,.83c-.1.06-10.46,6.29-15.88,12.82C3.51,20.43.41,29.51.08,33.51c-.27,3.41-.23,12,6.16,18.28h0s0,0,0,0-4-6-2.36-15"/><path class="cls-2" d="M46.11,13.19l0-.59A2.44,2.44,0,0,0,45.65,11c-.41-.47-1.07-.26-1.5-.12l-.1,0c-.4.12-2.82,1-2.84,1s0,0,0,0a115.78,115.78,0,0,1-.36,14.34c-.64,7.18-3.9,18.2-11,25.58-6.14,6.41-13,6-13.12,6a0,0,0,0,0,0,0s0,0,0,0c6.49,1.58,12.46.09,17.75-4.42,2.92-2.49,8-10,10.19-18.79,1.94-7.88,1.58-20.18,1.46-21.55"/><path class="cls-1" d="M54.75,44c0-.18-.26-.17-.41-.16h-.09a44.06,44.06,0,0,0-14.56,2.87,28.65,28.65,0,0,1-5.23,6.78C29.17,58,23.2,59.53,16.71,58c0,0,0,0,0,0s0,0,0,0h0a50.23,50.23,0,0,0-8.52,9.64c.64-1.64,3.78-9.62,4.51-11.25a10.12,10.12,0,0,1-.93-.47l-.27-.16a4.09,4.09,0,0,1-.39-.22c-.26.63-4.49,10.85-5.3,13.41a0,0,0,0,0,0,0,1.24,1.24,0,0,0,1,.67,11.85,11.85,0,0,0,2.7-.28l.32-.06c1-.16,2.89-.26,4.92-.35s4.35-.23,5.56-.43l.3-.05c3.47-.57,7.78-1.29,13.84-6.44,2.18-1.86,4.41-4.21,6.57-6.47a81.56,81.56,0,0,1,6.66-6.55,28.94,28.94,0,0,1,6.74-4.47l.05,0c.13,0,.34-.12.29-.35"/><path class="cls-2" d="M27.59,52.07c6-6,9.81-14.33,11.41-24.76a99,99,0,0,0,.13-23.76l0-.4c-.06-.82-.17-1.48-.85-1.77s-1.17,0-1.94.46L36,2l-.74.41A81,81,0,0,0,17.57,15.08C11.63,20.61,5,32,4.72,40.71c-.38,10.93,5,13.94,6.77,14.93l.27.16c3.67,2.19,10.19,2,15.83-3.73"/><path class="cls-2" d="M3.94,36.71c1.83-10.4,8.59-19.4,13.83-24a103.43,103.43,0,0,1,11-8.24s0,0,0,0-.67-2.66-.8-3.1l0-.09C27.78.84,27.58.13,27,0a2.18,2.18,0,0,0-1.48.51L25,.83c-.1.06-10.46,6.29-15.88,12.82C3.51,20.43.41,29.51.08,33.51c-.27,3.41-.23,12,6.16,18.28h0s0,0,0,0-4-6-2.36-15"/><path class="cls-2" d="M46.11,13.19l0-.59A2.44,2.44,0,0,0,45.65,11c-.41-.47-1.07-.26-1.5-.12l-.1,0c-.4.12-2.82,1-2.84,1s0,0,0,0a115.78,115.78,0,0,1-.36,14.34c-.64,7.18-3.9,18.2-11,25.58-6.14,6.41-13,6-13.12,6a0,0,0,0,0,0,0s0,0,0,0c6.49,1.58,12.46.09,17.75-4.42,2.92-2.49,8-10,10.19-18.79,1.94-7.88,1.58-20.18,1.46-21.55"/><polyline class="cls-3" points="187.16 24.22 179.84 24.22 179.84 62.31 187.17 62.31 187.16 24.22"/><polyline class="cls-3" points="123.29 26.45 123.29 24.23 100.3 24.23 100.3 62.32 123.3 62.32 123.29 60.1 107.64 60.1 107.64 43.77 122 43.77 122 41.54 107.64 41.54 107.64 26.45 123.29 26.45"/><polyline class="cls-3" points="137.88 24.23 137.89 62.32 145.22 62.32 145.22 43.39 145.21 24.22 137.88 24.23"/><polyline class="cls-3" points="151.57 40.57 164.66 24.22 160.56 24.22 145.22 43.39 157.54 62.32 165.73 62.32 151.57 40.57"/><path class="cls-3" d="M64.38,55.34a10.34,10.34,0,0,0,3.33,3.73,7.78,7.78,0,0,0,4.36,1.35,7,7,0,0,0,5.14-1.94,6.6,6.6,0,0,0,2-5c0-3.22-3-6-8.85-8.37l-.11,0q-4.74-1.87-6.73-4.26a9,9,0,0,1-2-6,10.72,10.72,0,0,1,3.42-8.18,12.45,12.45,0,0,1,8.85-3.2,14,14,0,0,1,7.13,1.78,10.93,10.93,0,0,1,4.52,5L82.86,32a8.56,8.56,0,0,0-2.92-4.11,7.59,7.59,0,0,0-4.63-1.43,6.43,6.43,0,0,0-4.7,1.8,6.24,6.24,0,0,0-1.83,4.67,5.41,5.41,0,0,0,1.51,3.86,16.69,16.69,0,0,0,5.65,3.31q6.51,2.74,8.58,5.24a9.6,9.6,0,0,1,2.08,6.38,11,11,0,0,1-3.68,8.51,13.26,13.26,0,0,1-9.3,3.37,15.18,15.18,0,0,1-7-1.52,14.13,14.13,0,0,1-5.14-4.71l2.92-2"/><polyline class="cls-3" points="187.16 24.22 179.84 24.22 179.84 62.31 187.17 62.31 187.16 24.22"/><polyline class="cls-3" points="123.29 26.45 123.29 24.23 100.3 24.23 100.3 62.32 123.3 62.32 123.29 60.1 107.64 60.1 107.64 43.77 122 43.77 122 41.54 107.64 41.54 107.64 26.45 123.29 26.45"/><polyline class="cls-3" points="137.88 24.23 137.89 62.32 145.22 62.32 145.22 43.39 145.21 24.22 137.88 24.23"/><polyline class="cls-3" points="151.57 40.57 164.66 24.22 160.56 24.22 145.22 43.39 157.54 62.32 165.73 62.32 151.57 40.57"/><path class="cls-3" d="M64.38,55.34a10.34,10.34,0,0,0,3.33,3.73,7.78,7.78,0,0,0,4.36,1.35,7,7,0,0,0,5.14-1.94,6.6,6.6,0,0,0,2-5c0-3.22-3-6-8.85-8.37l-.11,0q-4.74-1.87-6.73-4.26a9,9,0,0,1-2-6,10.72,10.72,0,0,1,3.42-8.18,12.45,12.45,0,0,1,8.85-3.2,14,14,0,0,1,7.13,1.78,10.93,10.93,0,0,1,4.52,5L82.86,32a8.56,8.56,0,0,0-2.92-4.11,7.59,7.59,0,0,0-4.63-1.43,6.43,6.43,0,0,0-4.7,1.8,6.24,6.24,0,0,0-1.83,4.67,5.41,5.41,0,0,0,1.51,3.86,16.69,16.69,0,0,0,5.65,3.31q6.51,2.74,8.58,5.24a9.6,9.6,0,0,1,2.08,6.38,11,11,0,0,1-3.68,8.51,13.26,13.26,0,0,1-9.3,3.37,15.18,15.18,0,0,1-7-1.52,14.13,14.13,0,0,1-5.14-4.71l2.92-2"/><path class="cls-3" d="M69.46,10.79c-.17.16-.39.4-.65.7-.12-.12-.33-.32-.65-.6a5.17,5.17,0,0,0-.81-.6l.72-.69a8.73,8.73,0,0,1,.7.54,3.73,3.73,0,0,1,.69.65m-.93.9a8.09,8.09,0,0,0-.65.7c-.12-.12-.34-.31-.66-.59a4.64,4.64,0,0,0-.8-.6c.2-.21.44-.44.71-.7.12.08.35.25.7.54A4.36,4.36,0,0,1,68.53,11.69Zm-3.65,7.54h-2V9.68h2v2.74a19.69,19.69,0,0,1,2.61,1,22.42,22.42,0,0,1,2,1.1,13.93,13.93,0,0,0-1,1.65,8,8,0,0,0-1.5-.9c-.78-.41-1.5-.75-2.15-1Z"/><path class="cls-3" d="M75.38,10.05h5.85v1.73H75.38V10.05m7.32,3.37a1.58,1.58,0,0,0-.15.3,8.66,8.66,0,0,1-2.73,4,9.34,9.34,0,0,1-4.13,1.77,4.61,4.61,0,0,0-.33-1.1,2.14,2.14,0,0,0-.53-.77,8.45,8.45,0,0,0,3.21-1,5.63,5.63,0,0,0,2.21-2.41h-6V12.47h7.17l.14-.09Z"/><path class="cls-3" d="M92.71,14.22c-.32.14-.84.41-1.56.8a9.28,9.28,0,0,0-.53-1.17,4,4,0,0,0-.57-.91c.46-.23,1-.5,1.52-.8a6.84,6.84,0,0,1,.65,1,4.41,4.41,0,0,1,.49,1m3-1.07a16.56,16.56,0,0,1-.94,2.73,6,6,0,0,1-1.72,2.2,8.75,8.75,0,0,1-3.32,1.52,2.69,2.69,0,0,0-.32-1,2.36,2.36,0,0,0-.55-.76,6.68,6.68,0,0,0,2.83-1A4.71,4.71,0,0,0,93.15,15a16.66,16.66,0,0,0,.73-2.37A18.65,18.65,0,0,0,95.74,13.15Zm-5.27,1.69c-.17.07-.68.34-1.54.8a6.33,6.33,0,0,0-.57-1.16,4.77,4.77,0,0,0-.64-.92c.46-.23,1-.5,1.52-.81a5.68,5.68,0,0,1,.71,1A4.63,4.63,0,0,1,90.47,14.84Z"/><path class="cls-3" d="M110.19,10.22a7,7,0,0,0-.66.67c-.12-.12-.33-.32-.65-.61a3.93,3.93,0,0,0-.78-.63c.22-.19.46-.42.74-.68q.16.12.69.57a4,4,0,0,1,.66.68m-1,.9c-.18.16-.4.38-.67.67-.11-.12-.32-.32-.64-.62a5.72,5.72,0,0,0-.78-.63l.74-.66a7.64,7.64,0,0,1,.68.56A4.19,4.19,0,0,1,109.19,11.12Zm-.57,1.09a1,1,0,0,0-.13.26A10.52,10.52,0,0,1,105.87,17a9.42,9.42,0,0,1-4.2,2.24,2.7,2.7,0,0,0-.33-.77,3,3,0,0,0-.87-1,10.14,10.14,0,0,0,3.09-1.09,6.56,6.56,0,0,0,2.76-3.52h-2.16a11.69,11.69,0,0,1-1.41,1.8,5.3,5.3,0,0,1-1.5,1.15,4.36,4.36,0,0,0-.49-.68,3.1,3.1,0,0,0-.78-.66A8.23,8.23,0,0,0,102.46,12a8.09,8.09,0,0,0,1.05-2.33l2,.53a7.12,7.12,0,0,1-.39.93h2.38a.81.81,0,0,1,.18-.08Z"/><path class="cls-3" d="M121.22,11.63a1.28,1.28,0,0,0-.22.3,21.08,21.08,0,0,1-1.54,2.61,10.66,10.66,0,0,1,1.88,1.81A11.29,11.29,0,0,1,122.61,18a15.12,15.12,0,0,0-1.56,1.25,7.73,7.73,0,0,0-1-1.51,13.74,13.74,0,0,0-1.68-1.82A12.11,12.11,0,0,1,113.85,19a3.65,3.65,0,0,0-1.17-1.63,11.16,11.16,0,0,0,3.72-2.22,9.52,9.52,0,0,0,2.22-2.94h-4.51V10.38l5.87-.06,1.24,1.31"/><path class="cls-3" d="M130.34,19.22h-2V9.66h2V12.4a19.77,19.77,0,0,1,2.6,1A20.6,20.6,0,0,1,135,14.53a15.34,15.34,0,0,0-1,1.67,7.17,7.17,0,0,0-1.5-.92c-.78-.4-1.5-.74-2.15-1v4.95"/><path class="cls-3" d="M144.75,14.09a6,6,0,0,1-1.1,3.64,4.92,4.92,0,0,1-2.74,1.59c.05-.1,0-.37-.25-.81a3.44,3.44,0,0,0-.63-1,3.44,3.44,0,0,0,1.93-.93,4.13,4.13,0,0,0,.88-2.88V12.5h1.87l0,.25,1.25-1.1h-6.18V9.92l7.92-.07L149,11.28l-3.78,3.51c-.11-.14-.27-.38-.48-.7"/><path class="cls-3" d="M174.75,13a11.68,11.68,0,0,1-1.42,1.65c-.52.52-1.12,1.09-1.84,1.7l-.53-.69a3.64,3.64,0,0,0-.66-.74c.31-.22.58-.41.81-.59a4.6,4.6,0,0,0,.88-.76l-2.27.32V16a2.2,2.2,0,0,0,.11.87.6.6,0,0,0,.51.3c.15,0,.57,0,1.28,0a20.48,20.48,0,0,0,2.8-.19c0,.09,0,.72,0,1.9a17.92,17.92,0,0,1-2.54.08,9.5,9.5,0,0,1-3.26-.35,1.38,1.38,0,0,1-.8-1.4V14.15l-2.1.3-.27-1.71,2.37-.33V9.89h1.91v2.24l3.51-.49.19-.1L174.75,13"/><polyline class="cls-3" points="187.58 15.77 184.11 16.02 184.41 19.14 182.47 19.24 182.19 16.15 178.58 16.39 178.43 14.53 182.01 14.28 181.91 13.21 179.24 13.38 179.1 11.59 181.75 11.42 181.61 9.9 183.51 9.71 183.66 11.29 186.01 11.12 186.18 12.92 183.82 13.08 183.94 14.15 187.39 13.9 187.58 15.77"/><path class="cls-3" d="M69.46,10.79c-.17.16-.39.4-.65.7-.12-.12-.33-.32-.65-.6a5.17,5.17,0,0,0-.81-.6l.72-.69a8.73,8.73,0,0,1,.7.54,3.73,3.73,0,0,1,.69.65m-.93.9a8.09,8.09,0,0,0-.65.7c-.12-.12-.34-.31-.66-.59a4.64,4.64,0,0,0-.8-.6c.2-.21.44-.44.71-.7.12.08.35.25.7.54A4.36,4.36,0,0,1,68.53,11.69Zm-3.65,7.54h-2V9.68h2v2.74a19.69,19.69,0,0,1,2.61,1,22.42,22.42,0,0,1,2,1.1,13.93,13.93,0,0,0-1,1.65,8,8,0,0,0-1.5-.9c-.78-.41-1.5-.75-2.15-1Z"/><path class="cls-3" d="M75.38,10.05h5.85v1.73H75.38V10.05m7.32,3.37a1.58,1.58,0,0,0-.15.3,8.66,8.66,0,0,1-2.73,4,9.34,9.34,0,0,1-4.13,1.77,4.61,4.61,0,0,0-.33-1.1,2.14,2.14,0,0,0-.53-.77,8.45,8.45,0,0,0,3.21-1,5.63,5.63,0,0,0,2.21-2.41h-6V12.47h7.17l.14-.09Z"/><path class="cls-3" d="M92.71,14.22c-.32.14-.84.41-1.56.8a9.28,9.28,0,0,0-.53-1.17,4,4,0,0,0-.57-.91c.46-.23,1-.5,1.52-.8a6.84,6.84,0,0,1,.65,1,4.41,4.41,0,0,1,.49,1m3-1.07a16.56,16.56,0,0,1-.94,2.73,6,6,0,0,1-1.72,2.2,8.75,8.75,0,0,1-3.32,1.52,2.69,2.69,0,0,0-.32-1,2.36,2.36,0,0,0-.55-.76,6.68,6.68,0,0,0,2.83-1A4.71,4.71,0,0,0,93.15,15a16.66,16.66,0,0,0,.73-2.37A18.65,18.65,0,0,0,95.74,13.15Zm-5.27,1.69c-.17.07-.68.34-1.54.8a6.33,6.33,0,0,0-.57-1.16,4.77,4.77,0,0,0-.64-.92c.46-.23,1-.5,1.52-.81a5.68,5.68,0,0,1,.71,1A4.63,4.63,0,0,1,90.47,14.84Z"/><path class="cls-3" d="M110.19,10.22a7,7,0,0,0-.66.67c-.12-.12-.33-.32-.65-.61a3.93,3.93,0,0,0-.78-.63c.22-.19.46-.42.74-.68q.16.12.69.57a4,4,0,0,1,.66.68m-1,.9c-.18.16-.4.38-.67.67-.11-.12-.32-.32-.64-.62a5.72,5.72,0,0,0-.78-.63l.74-.66a7.64,7.64,0,0,1,.68.56A4.19,4.19,0,0,1,109.19,11.12Zm-.57,1.09a1,1,0,0,0-.13.26A10.52,10.52,0,0,1,105.87,17a9.42,9.42,0,0,1-4.2,2.24,2.7,2.7,0,0,0-.33-.77,3,3,0,0,0-.87-1,10.14,10.14,0,0,0,3.09-1.09,6.56,6.56,0,0,0,2.76-3.52h-2.16a11.69,11.69,0,0,1-1.41,1.8,5.3,5.3,0,0,1-1.5,1.15,4.36,4.36,0,0,0-.49-.68,3.1,3.1,0,0,0-.78-.66A8.23,8.23,0,0,0,102.46,12a8.09,8.09,0,0,0,1.05-2.33l2,.53a7.12,7.12,0,0,1-.39.93h2.38a.81.81,0,0,1,.18-.08Z"/><path class="cls-3" d="M121.22,11.63a1.28,1.28,0,0,0-.22.3,21.08,21.08,0,0,1-1.54,2.61,10.66,10.66,0,0,1,1.88,1.81A11.29,11.29,0,0,1,122.61,18a15.12,15.12,0,0,0-1.56,1.25,7.73,7.73,0,0,0-1-1.51,13.74,13.74,0,0,0-1.68-1.82A12.11,12.11,0,0,1,113.85,19a3.65,3.65,0,0,0-1.17-1.63,11.16,11.16,0,0,0,3.72-2.22,9.52,9.52,0,0,0,2.22-2.94h-4.51V10.38l5.87-.06,1.24,1.31"/><path class="cls-3" d="M130.34,19.22h-2V9.66h2V12.4a19.77,19.77,0,0,1,2.6,1A20.6,20.6,0,0,1,135,14.53a15.34,15.34,0,0,0-1,1.67,7.17,7.17,0,0,0-1.5-.92c-.78-.4-1.5-.74-2.15-1v4.95"/><path class="cls-3" d="M144.75,14.09a6,6,0,0,1-1.1,3.64,4.92,4.92,0,0,1-2.74,1.59c.05-.1,0-.37-.25-.81a3.44,3.44,0,0,0-.63-1,3.44,3.44,0,0,0,1.93-.93,4.13,4.13,0,0,0,.88-2.88V12.5h1.87l0,.25,1.25-1.1h-6.18V9.92l7.92-.07L149,11.28l-3.78,3.51c-.11-.14-.27-.38-.48-.7"/><path class="cls-3" d="M174.75,13a11.68,11.68,0,0,1-1.42,1.65c-.52.52-1.12,1.09-1.84,1.7l-.53-.69a3.64,3.64,0,0,0-.66-.74c.31-.22.58-.41.81-.59a4.6,4.6,0,0,0,.88-.76l-2.27.32V16a2.2,2.2,0,0,0,.11.87.6.6,0,0,0,.51.3c.15,0,.57,0,1.28,0a20.48,20.48,0,0,0,2.8-.19c0,.09,0,.72,0,1.9a17.92,17.92,0,0,1-2.54.08,9.5,9.5,0,0,1-3.26-.35,1.38,1.38,0,0,1-.8-1.4V14.15l-2.1.3-.27-1.71,2.37-.33V9.89h1.91v2.24l3.51-.49.19-.1L174.75,13"/><polyline class="cls-3" points="187.58 15.77 184.11 16.02 184.41 19.14 182.47 19.24 182.19 16.15 178.58 16.39 178.43 14.53 182.01 14.28 181.91 13.21 179.24 13.38 179.1 11.59 181.75 11.42 181.61 9.9 183.51 9.71 183.66 11.29 186.01 11.12 186.18 12.92 183.82 13.08 183.94 14.15 187.39 13.9 187.58 15.77"/></g></g></svg>