<svg xmlns="http://www.w3.org/2000/svg" width="200" height="140" viewBox="0 0 200 140"><defs><style>.a{fill:#ffe8ef;}.a,.b{stroke:#ff9acc;stroke-width:3px;}.b{fill:#fff;}.c{fill:none;}.d{stroke:none;}</style></defs><g transform="translate(0 -562)"><g transform="translate(-0.117 -2.878)"><path class="a" d="M-3641.253-13985.8a53.4,53.4,0,0,1-9.246.8c-24.578,0-44.5-16.565-44.5-37s19.921-37,44.5-37,44.5,16.565,44.5,37c0,14.753-10.388,27.49-25.414,33.432,2.45,3.426,5.508,4.427,9.272,6.417a36.643,36.643,0,0,1-4.389.271A27.84,27.84,0,0,1-3641.253-13985.8Z" transform="translate(3751.115 14654.879)"/><g class="b" transform="translate(76 627)"><circle class="d" cx="6.5" cy="6.5" r="6.5"/><circle class="c" cx="6.5" cy="6.5" r="5"/></g><g class="b" transform="translate(94 627)"><circle class="d" cx="6.5" cy="6.5" r="6.5"/><circle class="c" cx="6.5" cy="6.5" r="5"/></g><g class="b" transform="translate(112 627)"><circle class="d" cx="6.5" cy="6.5" r="6.5"/><circle class="c" cx="6.5" cy="6.5" r="5"/></g></g><rect class="c" width="200" height="140" transform="translate(0 562)"/></g></svg>