<svg xmlns="http://www.w3.org/2000/svg" width="200" height="140" viewBox="0 0 200 140"><defs><style>.a,.f,.j{fill:#fff;}.b{fill:#9fcc47;opacity:0.6;}.c{fill:#2a8031;}.d{fill:#cb0011;}.e,.i,.k{fill:none;}.e,.f{stroke:#2a8031;}.e,.f,.i,.j{stroke-linecap:round;stroke-linejoin:round;stroke-width:2.556px;}.g{fill:#737475;}.h{fill:#ff9faa;}.i,.j{stroke:#cb0011;}</style></defs><g transform="translate(0 -283)"><g transform="translate(-0.429 -1.947)"><g transform="translate(118.172 326.947)"><rect class="a" width="63.096" height="23.24"/><rect class="b" width="53.374" height="32.531" transform="translate(4.703 23.24)"/><g transform="translate(9.617 4.417)"><path class="c" d="M562.035,197.459c-.007-.032-.048-.03-.077-.028h-.016a8.253,8.253,0,0,0-2.714.533,5.294,5.294,0,0,1-.975,1.263,3.569,3.569,0,0,1-3.307.824.007.007,0,0,1-.005-.007.005.005,0,0,1,0-.005h0a9.311,9.311,0,0,0-1.587,1.8c.119-.306.7-1.793.841-2.1a1.62,1.62,0,0,1-.174-.087l-.051-.03c-.022-.011-.046-.025-.072-.041-.049.116-.837,2.023-.988,2.5v0a.242.242,0,0,0,.187.126,2.245,2.245,0,0,0,.5-.053l.061-.011c.183-.029.539-.048.915-.067.4-.02.812-.04,1.036-.078l.058-.009a4.643,4.643,0,0,0,2.578-1.2,16.775,16.775,0,0,0,1.224-1.207,15.949,15.949,0,0,1,1.243-1.219,5.343,5.343,0,0,1,1.256-.833l.01,0C562,197.517,562.044,197.5,562.035,197.459Z" transform="translate(-551.832 -189.252)"/><path class="d" d="M556.767,190.956a8.129,8.129,0,0,0,2.127-4.614,18.523,18.523,0,0,0,.024-4.429l-.007-.075c-.012-.152-.031-.274-.159-.33s-.219.007-.36.087l-.057.032-.139.076a15.144,15.144,0,0,0-3.3,2.359,8.1,8.1,0,0,0-2.4,4.776c-.071,2.037.931,2.6,1.261,2.783l.051.03A2.481,2.481,0,0,0,556.767,190.956Z" transform="translate(-551.625 -181.252)"/><path class="d" d="M551.477,187.853a8.23,8.23,0,0,1,2.579-4.463,18.671,18.671,0,0,1,2.042-1.534.007.007,0,0,0,0-.008c0-.005-.126-.495-.15-.576l0-.018c-.025-.086-.062-.217-.172-.238a.4.4,0,0,0-.276.1l-.09.054a14.021,14.021,0,0,0-2.96,2.39,7.969,7.969,0,0,0-1.689,3.7,4.323,4.323,0,0,0,1.148,3.406s.006,0,.009,0a.007.007,0,0,0,0-.008A4.069,4.069,0,0,1,551.477,187.853Z" transform="translate(-550.743 -181.013)"/><path class="d" d="M562.469,185.481l-.007-.11a.467.467,0,0,0-.077-.3c-.078-.087-.2-.047-.281-.022l-.017.005c-.076.023-.526.183-.53.185a.006.006,0,0,0,0,.006,21.6,21.6,0,0,1-.067,2.672,8.413,8.413,0,0,1-2.048,4.769,3.382,3.382,0,0,1-2.446,1.122s-.006,0-.007.007a.007.007,0,0,0,.005.007A3.569,3.569,0,0,0,560.3,193a7.607,7.607,0,0,0,1.9-3.5A17.047,17.047,0,0,0,562.469,185.481Z" transform="translate(-553.876 -183.022)"/></g><line class="e" y1="32.531" transform="translate(5.084 23.24)"/><line class="e" y1="32.28" transform="translate(58.077 23.24)"/><line class="e" x1="49.713" transform="translate(8.112 55.771)"/><path class="e" d="M573.652,172.145H531.437v23.267h4.786" transform="translate(-531.437 -172.145)"/><path class="e" d="M623.95,172.145h17.014v23.24h-9.077" transform="translate(-577.869 -172.145)"/><rect class="f" width="28.082" height="24.992" transform="translate(12.471 30.779)"/><line class="e" y2="17.991" transform="translate(26.512 34.279)"/><g transform="translate(20.303 7.67)"><path class="g" d="M572.281,191.147l-.083-1.175,1.475-.135V188.27h1.22v1.461l3.683-.324a3.72,3.72,0,0,1-2.23,3.471l-.73-.911a2.423,2.423,0,0,0,1.468-1.3l-2.192.226v2.048c0,.437.1.467.618.467h1.7a7.42,7.42,0,0,0,1.152-.1v1.19a9.306,9.306,0,0,1-1.122.068h-1.981a1.924,1.924,0,0,1-1.212-.362,1.458,1.458,0,0,1-.377-1.145v-2.048Z" transform="translate(-572.198 -187.908)"/><path class="g" d="M594.518,188.984l.091,1.122-2.274.218.105,1.069,2.56-.241.083,1.137-2.538.241.2,2.056-1.25.075-.2-2.018-2.621.249-.106-1.13,2.613-.249-.1-1.069-2.289.226-.09-1.137,2.266-.211-.113-1.137,1.25-.1.106,1.115Z" transform="translate(-580.418 -187.817)"/><path class="g" d="M605.109,192.123l-.369-.934a9.535,9.535,0,0,0,1.679-.677l.279.693v-1.943h1.039c.045-.121.083-.241.12-.354l1.107.03c-.03.113-.06.218-.1.324h1.228v1.988l.5-.685a5.89,5.89,0,0,1,1.4.723l-.6.813a5.322,5.322,0,0,0-1.3-.746v.572h-1.16v.264h3v.889h-2.2a6.8,6.8,0,0,0,2.342.542l-.595,1.039a6.077,6.077,0,0,1-2.553-1.167v1.212h-1.092v-1.145a7.2,7.2,0,0,1-2.545,1.114l-.557-1.032a7.627,7.627,0,0,0,2.274-.565h-2.176v-.889h3v-.264H606.7v-.572A7.729,7.729,0,0,1,605.109,192.123Zm2.251-4.579v.339h2.079v-.339h1.1v.339h1.4v.881h-1.4v.309h-1.1v-.309h-2.079v.309h-1.092v-.309h-1.431v-.881h1.431v-.339Zm-.7,2.207-.565.843a5.477,5.477,0,0,0-1.19-.8l.5-.821A4.287,4.287,0,0,1,606.66,189.751Zm1.069.128v.369h1.318v-.369Zm0,.979v.377h1.318v-.377Zm2.922-.293-.512-.791a4.746,4.746,0,0,0,1.13-.806l.625.791A5.873,5.873,0,0,1,610.651,190.564Z" transform="translate(-588.531 -187.544)"/><path class="g" d="M627.521,193.841c.3,0,.354-.052.414-.421a16.962,16.962,0,0,0,.106-1.875h-4.157a6.863,6.863,0,0,1-.851,3.4l-.934-.874a5.617,5.617,0,0,0,.67-3.05v-3.012h6.084v2.229h-4.963v.4h5.256a21,21,0,0,1-.263,3.713.858.858,0,0,1-.9.572h-1.047l-.143-.655h-2.553V191.9H627.5v1.943Zm-3.63-4.895v.429h3.856v-.429Zm1.386,3.781v.685h1.182v-.685Z" transform="translate(-597.243 -187.779)"/></g><rect class="c" width="7.744" height="32.166" transform="translate(46.845 23.605)"/><line class="e" x2="44.734" transform="translate(9.286 23.24)"/></g><g transform="translate(19.429 327.107)"><path class="a" d="M333.2,185.694v10.012h85.493v-23.24H365.638v13.112Z" transform="translate(-333.202 -172.466)"/><rect class="h" width="85.373" height="32.531" transform="translate(0.121 23.24)"/><rect class="a" width="6.745" height="12.496" transform="translate(10.832 30.779)"/><rect class="a" width="6.745" height="12.496" transform="translate(22.261 30.779)"/><rect class="a" width="6.745" height="12.496" transform="translate(33.69 30.779)"/><path class="d" d="M492.348,172.466v17.793h-3.591c0-14.216-8.657-17.793-8.657-17.793Z" transform="translate(-406.929 -172.466)"/><path class="d" d="M365.919,172.466v13.687H333.444v4.107h36c0-14.355,8.616-17.793,8.616-17.793Z" transform="translate(-333.323 -172.466)"/><g transform="translate(42.053 4.417)"><g transform="translate(10.182 3.264)"><rect class="g" width="1.384" height="7.197" transform="translate(22.359 0.142)"/><path class="g" d="M457.132,188.591v-.42H452.79v7.2h4.342v-.42h-2.956v-3.086h2.714v-.42h-2.714v-2.851Z" transform="translate(-445.457 -188.03)"/><g transform="translate(14.432 0.142)"><path class="g" d="M467.042,188.172v7.2h1.385v-7.2Z" transform="translate(-467.042 -188.172)"/><path class="g" d="M471.023,191.261l2.473-3.089h-.775l-2.9,3.62,2.328,3.577H473.7Z" transform="translate(-468.437 -188.172)"/></g><path class="g" d="M438.62,193.905a1.931,1.931,0,0,0,.628.7,1.456,1.456,0,0,0,.825.255,1.332,1.332,0,0,0,.971-.365,1.254,1.254,0,0,0,.374-.937q0-.913-1.671-1.581l-.022-.005a3.2,3.2,0,0,1-1.271-.8,1.71,1.71,0,0,1-.376-1.134,2.021,2.021,0,0,1,.647-1.546,2.349,2.349,0,0,1,1.672-.6,2.627,2.627,0,0,1,1.347.336,2.063,2.063,0,0,1,.856.948l-.489.319a1.611,1.611,0,0,0-.552-.777,1.434,1.434,0,0,0-.876-.271,1.22,1.22,0,0,0-.888.339,1.186,1.186,0,0,0-.344.884,1.025,1.025,0,0,0,.284.731,3.2,3.2,0,0,0,1.068.625,4.439,4.439,0,0,1,1.62.99,1.823,1.823,0,0,1,.392,1.207,2.085,2.085,0,0,1-.695,1.606,2.5,2.5,0,0,1-1.758.635,2.866,2.866,0,0,1-1.327-.287,2.651,2.651,0,0,1-.969-.89Z" transform="translate(-438.069 -187.887)"/></g><path class="c" d="M428.919,197.78c-.007-.032-.048-.03-.077-.028h-.017a8.251,8.251,0,0,0-2.713.533,5.279,5.279,0,0,1-.975,1.263,3.567,3.567,0,0,1-3.306.824.006.006,0,0,1-.005-.007,0,0,0,0,1,0-.005h0a9.319,9.319,0,0,0-1.586,1.8c.119-.306.7-1.793.841-2.1a1.614,1.614,0,0,1-.174-.087l-.051-.03c-.022-.012-.046-.025-.072-.041-.049.117-.837,2.023-.988,2.5v0a.242.242,0,0,0,.187.126,2.272,2.272,0,0,0,.5-.053l.061-.011c.183-.029.539-.048.915-.067.4-.02.812-.04,1.036-.078l.058-.009a4.642,4.642,0,0,0,2.579-1.2,16.769,16.769,0,0,0,1.223-1.207,15.945,15.945,0,0,1,1.243-1.219,5.344,5.344,0,0,1,1.256-.833l.009,0C428.888,197.837,428.928,197.823,428.919,197.78Z" transform="translate(-418.716 -189.573)"/><path class="d" d="M423.651,191.277a8.133,8.133,0,0,0,2.127-4.614,18.526,18.526,0,0,0,.024-4.429l-.007-.075c-.012-.152-.031-.274-.159-.33s-.219.007-.361.087l-.056.031-.14.076a15.171,15.171,0,0,0-3.3,2.359,8.1,8.1,0,0,0-2.4,4.776c-.071,2.037.931,2.6,1.261,2.783l.051.03A2.481,2.481,0,0,0,423.651,191.277Z" transform="translate(-418.509 -181.573)"/><path class="d" d="M418.361,188.174a8.23,8.23,0,0,1,2.579-4.463,18.612,18.612,0,0,1,2.042-1.534.008.008,0,0,0,0-.008s-.125-.494-.15-.575l0-.018c-.025-.086-.062-.217-.172-.238-.091-.018-.169.03-.276.1l-.09.054a13.988,13.988,0,0,0-2.96,2.39,7.969,7.969,0,0,0-1.689,3.7,4.321,4.321,0,0,0,1.148,3.406s.005,0,.008,0a.006.006,0,0,0,0-.008A4.072,4.072,0,0,1,418.361,188.174Z" transform="translate(-417.627 -181.333)"/><path class="d" d="M429.353,185.8l-.008-.11a.462.462,0,0,0-.076-.3c-.078-.087-.2-.047-.281-.022l-.017.005c-.076.023-.525.183-.529.185a.005.005,0,0,0,0,.006,21.552,21.552,0,0,1-.068,2.672,8.414,8.414,0,0,1-2.048,4.769,3.382,3.382,0,0,1-2.446,1.122s-.005,0-.007.007a.006.006,0,0,0,.006.007,3.567,3.567,0,0,0,3.306-.824,7.606,7.606,0,0,0,1.9-3.5A17.056,17.056,0,0,0,429.353,185.8Z" transform="translate(-420.76 -183.343)"/></g><line class="i" y1="32.531" transform="translate(0 23.24)"/><path class="i" d="M422,219.122v32.531H339.787" transform="translate(-336.507 -195.882)"/><path class="i" d="M402.834,172.466h-37.2v13.228H333.2v10.012" transform="translate(-333.202 -172.466)"/><path class="i" d="M492.752,195.706v-23.24H480.757" transform="translate(-407.259 -172.466)"/><rect class="j" width="28.082" height="24.992" transform="translate(44.907 30.779)"/><path class="d" d="M384.756,245.63V233.1a1.046,1.046,0,0,0-1.046-1.046h-6.465A1.046,1.046,0,0,0,376.2,233.1V245.63a1.046,1.046,0,0,0,1.046,1.046h6.465A1.046,1.046,0,0,0,384.756,245.63Zm-6.465-1.046V234.148h4.374v10.436Z" transform="translate(-354.782 -202.374)"/><path class="d" d="M361.686,245.63V233.1a1.046,1.046,0,0,0-1.046-1.046h-6.465a1.046,1.046,0,0,0-1.046,1.046V245.63a1.046,1.046,0,0,0,1.046,1.046h6.465A1.046,1.046,0,0,0,361.686,245.63Zm-6.465-1.046V234.148h4.374v10.436Z" transform="translate(-343.203 -202.374)"/><path class="d" d="M407.324,245.63V233.1a1.046,1.046,0,0,0-1.046-1.046h-6.465a1.046,1.046,0,0,0-1.046,1.046V245.63a1.046,1.046,0,0,0,1.046,1.046h6.465A1.046,1.046,0,0,0,407.324,245.63Zm-6.465-1.046V234.148h4.374v10.436Z" transform="translate(-366.108 -202.374)"/><line class="i" y2="17.991" transform="translate(58.948 34.28)"/><path class="i" d="M339.48,219.122h79.527" transform="translate(-336.353 -195.883)"/></g></g><rect class="k" width="200" height="140" transform="translate(0 283)"/></g></svg>