<svg xmlns="http://www.w3.org/2000/svg" width="200" height="140" viewBox="0 0 200 140"><defs><style>.a{fill:#ffd28b;}.b{fill:#fff;}.c,.d{fill:none;}.c{stroke:#f29600;stroke-linecap:round;stroke-linejoin:round;stroke-width:2.155px;}</style></defs><g transform="translate(0 -1123)"><g transform="translate(-92 292)"><path class="a" d="M3048.927,392.608v29.637h-4.082V433.2h4.082v22.1h45.816V433.2h4.141V422.244h-4.141V392.608Z" transform="translate(-2906.809 477.393)"/><rect class="b" width="30.524" height="16.16" transform="translate(149.749 916.84)"/><path class="c" d="M3048.927,422.244h-4.082V433.2h4.082v22.1h104.882V392.608H3048.927Z" transform="translate(-2906.809 477.393)"/><path class="c" d="M3048.927,433.2h49.957V422.244H3053.8" transform="translate(-2906.809 477.393)"/><line class="c" y2="20.761" transform="translate(187.935 874.915)"/><line class="c" y1="22.099" transform="translate(187.935 910.594)"/><line class="c" x2="2.307" transform="translate(147.797 905.115)"/><line class="c" x2="7.789" transform="translate(154.205 905.115)"/><line class="c" x2="16.514" transform="translate(166.183 905.115)"/><path class="c" d="M3056.912,455.3V439.448h30.169V455.3" transform="translate(-2906.809 477.393)"/><line class="c" y2="11.993" transform="translate(165.188 920.699)"/><rect class="c" width="6.003" height="10.946" transform="translate(198.786 882.955)"/><rect class="c" width="6.003" height="10.946" transform="translate(209.789 882.955)"/><rect class="c" width="6.003" height="10.946" transform="translate(220.792 882.955)"/><rect class="c" width="6.003" height="10.946" transform="translate(198.786 908.92)"/><rect class="c" width="6.003" height="10.946" transform="translate(209.789 908.92)"/><rect class="c" width="6.003" height="10.946" transform="translate(220.792 908.92)"/><rect class="c" width="6.003" height="10.946" transform="translate(231.795 882.955)"/></g><rect class="d" width="200" height="140" transform="translate(0 1123)"/></g></svg>