<svg xmlns="http://www.w3.org/2000/svg" width="200" height="140" viewBox="0 0 200 140"><defs><style>.a,.b{fill:#b5dc79;}.b,.c,.d{stroke:#6fb92c;stroke-linecap:round;stroke-linejoin:round;stroke-width:2.148px;}.c,.f{fill:none;}.d,.e{fill:#fff;}</style></defs><g transform="translate(0 -843)"><g transform="translate(-2691.768 54.42)"><path class="a" d="M2850,426.555l19.969,12.227s-7.034,15.178-10.524,16.718-8.186,3.744-14.205-1-4.787-11.079-3.433-13.589S2850,426.555,2850,426.555Z" transform="translate(-96.809 434.492)"/><rect class="b" width="18.42" height="6.462" transform="translate(2793.071 824.58)"/><path class="b" d="M2916.034,450.808H2871.26V413.745h56.085v37.063h-6.971" transform="translate(-96.809 434.492)"/><path class="c" d="M2927.345,396.55v12.313H2871.26V396.55h52.063" transform="translate(-96.809 434.492)"/><rect class="c" width="60.387" height="4.881" transform="translate(2772.301 843.354)"/><path class="d" d="M2910.454,427.434H2903.2V420.18h-8.219v7.255h-7.255v8.219h7.255v7.255h8.219v-7.255h7.255Z" transform="translate(-96.809 434.492)"/><path class="e" d="M2850,426.268c2.588-4.482,6.469-15.167,12.756-17.961s10.418.321,13.416,2.325,5.5,7.528,3.19,12.043-9.265,16.6-9.265,16.6Z" transform="translate(-96.809 434.492)"/><path class="c" d="M2860.474,409.72a11.579,11.579,0,0,1,12.97-.983l.708.409a11.572,11.572,0,0,1,4.223,15.76L2863.1,451.358a11.571,11.571,0,0,1-15.76,4.222l-.708-.408a11.57,11.57,0,0,1-4.223-15.76L2850,426.268l7.683-13.308" transform="translate(-96.809 434.492)"/><line class="c" x1="20.097" y1="13.007" transform="translate(2753.191 860.76)"/><path class="d" d="M2891.19,453.725V442.037H2859.7v11.688c0,2.41,7.05,4.364,15.747,4.364a41.6,41.6,0,0,0,11.864-1.494" transform="translate(-96.809 434.492)"/><ellipse class="d" cx="15.748" cy="4.364" rx="15.748" ry="4.364" transform="translate(2762.886 872.165)"/><line class="d" y1="7.753" x2="14.433" transform="translate(2771.766 872.701)"/></g><rect class="f" width="200" height="140" transform="translate(0 843)"/></g></svg>